<svg width="26" height="26" viewBox="0 0 26 26" fill="none" xmlns="http://www.w3.org/2000/svg">
<path d="M19.0802 16.7823C20.3596 15.0351 21.1249 12.889 21.1249 10.5625C21.1249 4.73853 16.3864 0 10.5624 0C4.73848 0 0 4.73853 0 10.5625C0 16.3864 4.73853 21.125 10.5625 21.125C12.889 21.125 15.0353 20.3596 16.7825 19.0801L23.7022 25.9998L26 23.702C26 23.702 19.0802 16.7823 19.0802 16.7823ZM10.5625 17.8749C6.53013 17.8749 3.25001 14.5948 3.25001 10.5625C3.25001 6.53013 6.53013 3.25001 10.5625 3.25001C14.5948 3.25001 17.8749 6.53013 17.8749 10.5625C17.8749 14.5948 14.5948 17.8749 10.5625 17.8749Z" fill="#D84339"/>
</svg>
